<?xml version="1.0"?><svg xmlns="http://www.w3.org/2000/svg" xmlns:xlink="http://www.w3.org/1999/xlink" viewBox="19.53 13.98 380.57 132.68" preserveAspectRatio="xMidYMid" width="100%" height="100%"><clipPath id="165"><rect x="0.375" y="0.375" width="768.85" height="522.45" /></clipPath><g id="drawing"><rect x="19.53" y="13.98" width="100%" height="100%" fill="rgb(255, 255, 255)" /><g id="page" clip-path="url(#165)"><g id="Solid"><path d="M19.53 22.69 L19.53 22.69 L19.91 22.91 L20.29 23.13 L20.29 39.69 L19.91 39.91 L19.53 40.13 Z" stroke="rgb(0, 0, 0)" stroke-width="0" fill-rule="evenodd" stroke-linejoin="miter" fill="rgb(0, 0, 0)" shape-rendering="geometricPrecision" /><line x1="22.97" y1="24.68" x2="22.97" y2="38.14" stroke="rgb(0, 0, 0)" stroke-width="0.75" shape-rendering="auto" /></g><g id="Solid"><path d="M19.53 40.13 L19.53 40.13 L19.91 39.91 L20.29 39.69 L34.64 47.98 L34.64 48.41 L34.64 48.84 Z" stroke="rgb(0, 0, 0)" stroke-width="0" fill-rule="evenodd" stroke-linejoin="miter" fill="rgb(0, 0, 0)" shape-rendering="geometricPrecision" /></g><g id="Solid"><path d="M34.64 48.84 L34.64 48.84 L34.64 48.41 L34.64 47.98 L48.99 39.69 L49.36 39.91 L49.36 40.34 Z" stroke="rgb(0, 0, 0)" stroke-width="0" fill-rule="evenodd" stroke-linejoin="miter" fill="rgb(0, 0, 0)" shape-rendering="geometricPrecision" /><line x1="34.64" y1="44.88" x2="46.3" y2="38.14" stroke="rgb(0, 0, 0)" stroke-width="0.75" shape-rendering="auto" /></g><g id="Solid"><path d="M49.74 39.69 L49.74 39.69 L49.36 39.91 L48.99 39.69 L48.99 23.13 L49.36 22.91 L49.73 22.69 Z" stroke="rgb(0, 0, 0)" stroke-width="0" fill-rule="evenodd" stroke-linejoin="miter" fill="rgb(0, 0, 0)" shape-rendering="geometricPrecision" /></g><g id="Solid"><path d="M49.73 22.69 L49.73 22.69 L49.36 22.91 L48.99 23.13 L34.64 14.84 L34.64 14.41 L34.64 13.98 Z" stroke="rgb(0, 0, 0)" stroke-width="0" fill-rule="evenodd" stroke-linejoin="miter" fill="rgb(0, 0, 0)" shape-rendering="geometricPrecision" /><line x1="46.3" y1="24.68" x2="34.64" y2="17.94" stroke="rgb(0, 0, 0)" stroke-width="0.75" shape-rendering="auto" /></g><g id="Solid"><path d="M34.64 13.98 L34.64 13.98 L34.64 14.41 L34.64 14.84 L20.29 23.13 L19.91 22.91 L19.53 22.69 Z" stroke="rgb(0, 0, 0)" stroke-width="0" fill-rule="evenodd" stroke-linejoin="miter" fill="rgb(0, 0, 0)" shape-rendering="geometricPrecision" /></g><g id="Solid"><path d="M49.36 40.34 L49.36 40.34 L49.36 39.91 L49.74 39.69 L64.08 47.98 L64.08 48.41 L64.08 48.84 Z" stroke="rgb(0, 0, 0)" stroke-width="0" fill-rule="evenodd" stroke-linejoin="miter" fill="rgb(0, 0, 0)" shape-rendering="geometricPrecision" /></g><g id="Solid"><path d="M64.08 48.84 L64.08 48.84 L64.08 48.41 L64.08 47.98 L78.43 39.69 L78.8 39.91 L78.8 40.34 Z" stroke="rgb(0, 0, 0)" stroke-width="0" fill-rule="evenodd" stroke-linejoin="miter" fill="rgb(0, 0, 0)" shape-rendering="geometricPrecision" /></g><g id="Solid"><line x1="65.61" y1="48.41" x2="65.61" y2="65.41" stroke="rgb(0, 0, 0)" stroke-width="0.75" shape-rendering="auto" /><path d="M62.92 48.18 L62.92 48.18 L62.17 47.74 L62.18 65.41 L62.92 65.41 Z" stroke="rgb(0, 0, 0)" stroke-width="0" fill-rule="evenodd" stroke-linejoin="miter" fill="rgb(0, 0, 0)" shape-rendering="geometricPrecision" /><path d="M65.98 47.74 L65.98 47.74 L65.23 48.18 L65.24 65.41 L65.98 65.41 Z" stroke="rgb(0, 0, 0)" stroke-width="0" fill-rule="evenodd" stroke-linejoin="miter" fill="rgb(0, 0, 0)" shape-rendering="geometricPrecision" /></g><g id="Solid"><path d="M78.8 40.34 L78.8 40.34 L78.8 39.91 L79.18 39.69 L93.53 47.98 L93.53 48.41 L93.16 48.63 Z" stroke="rgb(0, 0, 0)" stroke-width="0" fill-rule="evenodd" stroke-linejoin="miter" fill="rgb(0, 0, 0)" shape-rendering="geometricPrecision" /></g><g><text xml:space="preserve" text-anchor="start" text-rendering="geometricPrecision"><tspan x="74.13" y="27.61" font-family="Arial" font-size="12" fill="rgb(0, 0, 0)">OH</tspan></text></g><g id="Solid"><path d="M79.18 39.69 L79.18 39.69 L78.8 39.91 L78.43 39.69 L78.43 29.8 L78.8 29.8 L79.18 29.8 Z" stroke="rgb(0, 0, 0)" stroke-width="0" fill-rule="evenodd" stroke-linejoin="miter" fill="rgb(0, 0, 0)" shape-rendering="geometricPrecision" /></g><g id="Solid"><path d="M93.16 48.63 L93.16 48.63 L93.53 48.41 L93.91 48.63 L93.91 65.19 L93.53 65.41 L93.15 65.63 Z" stroke="rgb(0, 0, 0)" stroke-width="0" fill-rule="evenodd" stroke-linejoin="miter" fill="rgb(0, 0, 0)" shape-rendering="geometricPrecision" /><line x1="96.59" y1="50.18" x2="96.59" y2="63.64" stroke="rgb(0, 0, 0)" stroke-width="0.75" shape-rendering="auto" /></g><g id="Solid"><path d="M93.15 65.63 L93.15 65.63 L93.53 65.41 L93.91 65.19 L108.25 73.48 L108.25 73.91 L108.25 74.34 Z" stroke="rgb(0, 0, 0)" stroke-width="0" fill-rule="evenodd" stroke-linejoin="miter" fill="rgb(0, 0, 0)" shape-rendering="geometricPrecision" /></g><g id="Solid"><path d="M108.25 74.34 L108.25 74.34 L108.25 73.91 L108.25 73.48 L122.6 65.19 L122.97 65.41 L123.34 65.63 Z" stroke="rgb(0, 0, 0)" stroke-width="0" fill-rule="evenodd" stroke-linejoin="miter" fill="rgb(0, 0, 0)" shape-rendering="geometricPrecision" /><line x1="108.25" y1="70.38" x2="119.91" y2="63.64" stroke="rgb(0, 0, 0)" stroke-width="0.75" shape-rendering="auto" /></g><g id="Solid"><path d="M123.34 65.63 L123.34 65.63 L122.97 65.41 L122.6 65.19 L122.6 48.63 L122.97 48.41 L123.34 48.19 Z" stroke="rgb(0, 0, 0)" stroke-width="0" fill-rule="evenodd" stroke-linejoin="miter" fill="rgb(0, 0, 0)" shape-rendering="geometricPrecision" /></g><g id="Solid"><path d="M123.34 48.19 L123.34 48.19 L122.97 48.41 L122.6 48.63 L108.25 40.34 L108.25 39.91 L108.25 39.48 Z" stroke="rgb(0, 0, 0)" stroke-width="0" fill-rule="evenodd" stroke-linejoin="miter" fill="rgb(0, 0, 0)" shape-rendering="geometricPrecision" /><line x1="119.91" y1="50.18" x2="108.25" y2="43.44" stroke="rgb(0, 0, 0)" stroke-width="0.75" shape-rendering="auto" /></g><g id="Solid"><path d="M108.25 39.48 L108.25 39.48 L108.25 39.91 L108.25 40.34 L93.91 48.63 L93.53 48.41 L93.53 47.98 Z" stroke="rgb(0, 0, 0)" stroke-width="0" fill-rule="evenodd" stroke-linejoin="miter" fill="rgb(0, 0, 0)" shape-rendering="geometricPrecision" /></g><g id="Arrow"><line x1="214.24" y1="48.22" x2="141.05" y2="48.22" stroke="rgb(0, 0, 0)" stroke-width="0.75" shape-rendering="auto" /><path d="M219.8 48.22 L212.3 46.34 C213.68 47.4 213.68 49.04 212.3 50.1 Z" stroke="rgb(0, 0, 0)" stroke-width="0" fill-rule="evenodd" stroke-linejoin="miter" stroke-miterlimit="8.66906256893602" fill="rgb(0, 0, 0)" shape-rendering="geometricPrecision" /></g><g><text xml:space="preserve" text-anchor="start" text-rendering="geometricPrecision"><tspan x="168.05" y="40.72" font-family="Arial" font-size="12" fill="rgb(0, 0, 0)">4H</tspan><tspan font-family="Arial" dy="-4.89" font-size="9" fill="rgb(0, 0, 0)">+</tspan></text></g><g><text xml:space="preserve" text-anchor="start" text-rendering="geometricPrecision"><tspan x="167.3" y="65.47" font-family="Arial" font-size="12" fill="rgb(0, 0, 0)">HCl</tspan></text></g><g id="Solid"><path d="M233.2 25.25 L233.2 25.25 L233.58 25.47 L233.96 25.69 L233.96 42.25 L233.58 42.47 L233.2 42.69 Z" stroke="rgb(0, 0, 0)" stroke-width="0" fill-rule="evenodd" stroke-linejoin="miter" fill="rgb(0, 0, 0)" shape-rendering="geometricPrecision" /><line x1="236.64" y1="27.24" x2="236.64" y2="40.7" stroke="rgb(0, 0, 0)" stroke-width="0.75" shape-rendering="auto" /></g><g id="Solid"><path d="M233.2 42.69 L233.2 42.69 L233.58 42.47 L233.96 42.25 L248.3 50.54 L248.3 50.97 L248.3 51.4 Z" stroke="rgb(0, 0, 0)" stroke-width="0" fill-rule="evenodd" stroke-linejoin="miter" fill="rgb(0, 0, 0)" shape-rendering="geometricPrecision" /></g><g id="Solid"><path d="M248.3 51.4 L248.3 51.4 L248.3 50.97 L248.3 50.54 L262.65 42.25 L263.02 42.47 L263.02 42.9 Z" stroke="rgb(0, 0, 0)" stroke-width="0" fill-rule="evenodd" stroke-linejoin="miter" fill="rgb(0, 0, 0)" shape-rendering="geometricPrecision" /><line x1="248.3" y1="47.44" x2="259.96" y2="40.7" stroke="rgb(0, 0, 0)" stroke-width="0.75" shape-rendering="auto" /></g><g id="Solid"><path d="M263.4 42.25 L263.4 42.25 L263.02 42.47 L262.65 42.25 L262.65 25.69 L263.02 25.47 L263.39 25.25 Z" stroke="rgb(0, 0, 0)" stroke-width="0" fill-rule="evenodd" stroke-linejoin="miter" fill="rgb(0, 0, 0)" shape-rendering="geometricPrecision" /></g><g id="Solid"><path d="M263.39 25.25 L263.39 25.25 L263.02 25.47 L262.65 25.69 L248.3 17.4 L248.3 16.97 L248.3 16.54 Z" stroke="rgb(0, 0, 0)" stroke-width="0" fill-rule="evenodd" stroke-linejoin="miter" fill="rgb(0, 0, 0)" shape-rendering="geometricPrecision" /><line x1="259.96" y1="27.24" x2="248.3" y2="20.5" stroke="rgb(0, 0, 0)" stroke-width="0.75" shape-rendering="auto" /></g><g id="Solid"><path d="M248.3 16.54 L248.3 16.54 L248.3 16.97 L248.3 17.4 L233.96 25.69 L233.58 25.47 L233.2 25.25 Z" stroke="rgb(0, 0, 0)" stroke-width="0" fill-rule="evenodd" stroke-linejoin="miter" fill="rgb(0, 0, 0)" shape-rendering="geometricPrecision" /></g><g id="Solid"><path d="M263.02 42.9 L263.02 42.9 L263.02 42.47 L263.4 42.25 L277.74 50.54 L277.74 50.97 L277.74 51.4 Z" stroke="rgb(0, 0, 0)" stroke-width="0" fill-rule="evenodd" stroke-linejoin="miter" fill="rgb(0, 0, 0)" shape-rendering="geometricPrecision" /></g><g id="Solid"><path d="M277.74 51.4 L277.74 51.4 L277.74 50.97 L277.74 50.54 L292.47 42.04 L292.47 42.47 L292.47 42.9 Z" stroke="rgb(0, 0, 0)" stroke-width="0" fill-rule="evenodd" stroke-linejoin="miter" fill="rgb(0, 0, 0)" shape-rendering="geometricPrecision" /><line x1="277.74" y1="47.44" x2="290.94" y2="39.82" stroke="rgb(0, 0, 0)" stroke-width="0.75" shape-rendering="auto" /></g><g id="Solid"><path d="M292.47 42.9 L292.47 42.9 L292.47 42.47 L292.47 42.04 L307.19 50.54 L307.19 50.97 L306.82 51.19 Z" stroke="rgb(0, 0, 0)" stroke-width="0" fill-rule="evenodd" stroke-linejoin="miter" fill="rgb(0, 0, 0)" shape-rendering="geometricPrecision" /></g><g id="Solid"><path d="M306.82 51.19 L306.82 51.19 L307.19 50.97 L307.57 51.19 L307.57 67.75 L307.19 67.97 L306.81 68.19 Z" stroke="rgb(0, 0, 0)" stroke-width="0" fill-rule="evenodd" stroke-linejoin="miter" fill="rgb(0, 0, 0)" shape-rendering="geometricPrecision" /><line x1="310.25" y1="52.74" x2="310.25" y2="66.2" stroke="rgb(0, 0, 0)" stroke-width="0.75" shape-rendering="auto" /></g><g id="Solid"><path d="M306.81 68.19 L306.81 68.19 L307.19 67.97 L307.57 67.75 L321.91 76.04 L321.91 76.47 L321.91 76.9 Z" stroke="rgb(0, 0, 0)" stroke-width="0" fill-rule="evenodd" stroke-linejoin="miter" fill="rgb(0, 0, 0)" shape-rendering="geometricPrecision" /></g><g id="Solid"><path d="M321.91 76.9 L321.91 76.9 L321.91 76.47 L321.91 76.04 L336.26 67.75 L336.63 67.97 L337 68.19 Z" stroke="rgb(0, 0, 0)" stroke-width="0" fill-rule="evenodd" stroke-linejoin="miter" fill="rgb(0, 0, 0)" shape-rendering="geometricPrecision" /><line x1="321.91" y1="72.94" x2="333.57" y2="66.2" stroke="rgb(0, 0, 0)" stroke-width="0.75" shape-rendering="auto" /></g><g id="Solid"><path d="M337 68.19 L337 68.19 L336.63 67.97 L336.26 67.75 L336.26 51.19 L336.63 50.97 L337 50.75 Z" stroke="rgb(0, 0, 0)" stroke-width="0" fill-rule="evenodd" stroke-linejoin="miter" fill="rgb(0, 0, 0)" shape-rendering="geometricPrecision" /></g><g id="Solid"><path d="M337 50.75 L337 50.75 L336.63 50.97 L336.26 51.19 L321.91 42.9 L321.91 42.47 L321.91 42.04 Z" stroke="rgb(0, 0, 0)" stroke-width="0" fill-rule="evenodd" stroke-linejoin="miter" fill="rgb(0, 0, 0)" shape-rendering="geometricPrecision" /><line x1="333.57" y1="52.74" x2="321.91" y2="46" stroke="rgb(0, 0, 0)" stroke-width="0.75" shape-rendering="auto" /></g><g id="Solid"><path d="M321.91 42.04 L321.91 42.04 L321.91 42.47 L321.91 42.9 L307.57 51.19 L307.19 50.97 L307.19 50.54 Z" stroke="rgb(0, 0, 0)" stroke-width="0" fill-rule="evenodd" stroke-linejoin="miter" fill="rgb(0, 0, 0)" shape-rendering="geometricPrecision" /></g><g><text xml:space="preserve" text-anchor="start" text-rendering="geometricPrecision"><tspan x="357.8" y="51.97" font-family="Arial" font-size="12" fill="rgb(0, 0, 0)">+ 2H</tspan><tspan font-family="Arial" dy="2.72" font-size="9" fill="rgb(0, 0, 0)">2</tspan><tspan font-family="Arial" dy="-2.72" font-size="12" fill="rgb(0, 0, 0)">O</tspan></text></g><g id="Solid"><path d="M21.78 92.44 L21.78 92.44 L22.16 92.66 L22.54 92.88 L22.54 109.44 L22.16 109.66 L21.78 109.88 Z" stroke="rgb(0, 0, 0)" stroke-width="0" fill-rule="evenodd" stroke-linejoin="miter" fill="rgb(0, 0, 0)" shape-rendering="geometricPrecision" /><line x1="25.22" y1="94.43" x2="25.22" y2="107.89" stroke="rgb(0, 0, 0)" stroke-width="0.75" shape-rendering="auto" /></g><g id="Solid"><path d="M21.78 109.88 L21.78 109.88 L22.16 109.66 L22.54 109.44 L36.89 117.73 L36.89 118.16 L36.89 118.59 Z" stroke="rgb(0, 0, 0)" stroke-width="0" fill-rule="evenodd" stroke-linejoin="miter" fill="rgb(0, 0, 0)" shape-rendering="geometricPrecision" /></g><g id="Solid"><path d="M36.89 118.59 L36.89 118.59 L36.89 118.16 L36.89 117.73 L51.24 109.44 L51.61 109.66 L51.61 110.09 Z" stroke="rgb(0, 0, 0)" stroke-width="0" fill-rule="evenodd" stroke-linejoin="miter" fill="rgb(0, 0, 0)" shape-rendering="geometricPrecision" /><line x1="36.89" y1="114.63" x2="48.55" y2="107.89" stroke="rgb(0, 0, 0)" stroke-width="0.75" shape-rendering="auto" /></g><g id="Solid"><path d="M51.99 109.44 L51.99 109.44 L51.61 109.66 L51.24 109.44 L51.24 92.88 L51.61 92.66 L51.98 92.44 Z" stroke="rgb(0, 0, 0)" stroke-width="0" fill-rule="evenodd" stroke-linejoin="miter" fill="rgb(0, 0, 0)" shape-rendering="geometricPrecision" /></g><g id="Solid"><path d="M51.98 92.44 L51.98 92.44 L51.61 92.66 L51.24 92.88 L36.89 84.59 L36.89 84.16 L36.89 83.73 Z" stroke="rgb(0, 0, 0)" stroke-width="0" fill-rule="evenodd" stroke-linejoin="miter" fill="rgb(0, 0, 0)" shape-rendering="geometricPrecision" /><line x1="48.55" y1="94.43" x2="36.89" y2="87.69" stroke="rgb(0, 0, 0)" stroke-width="0.75" shape-rendering="auto" /></g><g id="Solid"><path d="M36.89 83.73 L36.89 83.73 L36.89 84.16 L36.89 84.59 L22.54 92.88 L22.16 92.66 L21.78 92.44 Z" stroke="rgb(0, 0, 0)" stroke-width="0" fill-rule="evenodd" stroke-linejoin="miter" fill="rgb(0, 0, 0)" shape-rendering="geometricPrecision" /></g><g id="Solid"><path d="M51.61 110.09 L51.61 110.09 L51.61 109.66 L51.99 109.44 L66.33 117.73 L66.33 118.16 L66.33 118.59 Z" stroke="rgb(0, 0, 0)" stroke-width="0" fill-rule="evenodd" stroke-linejoin="miter" fill="rgb(0, 0, 0)" shape-rendering="geometricPrecision" /></g><g id="Solid"><path d="M66.33 118.59 L66.33 118.59 L66.33 118.16 L66.33 117.73 L81.05 109.23 L81.05 109.66 L81.05 110.09 Z" stroke="rgb(0, 0, 0)" stroke-width="0" fill-rule="evenodd" stroke-linejoin="miter" fill="rgb(0, 0, 0)" shape-rendering="geometricPrecision" /></g><g id="Solid"><line x1="67.86" y1="118.16" x2="67.86" y2="135.16" stroke="rgb(0, 0, 0)" stroke-width="0.75" shape-rendering="auto" /><path d="M65.17 117.93 L65.17 117.93 L64.42 117.49 L64.42 135.16 L65.18 135.16 Z" stroke="rgb(0, 0, 0)" stroke-width="0" fill-rule="evenodd" stroke-linejoin="miter" fill="rgb(0, 0, 0)" shape-rendering="geometricPrecision" /><path d="M68.23 117.49 L68.23 117.49 L67.48 117.93 L67.48 135.16 L68.24 135.16 Z" stroke="rgb(0, 0, 0)" stroke-width="0" fill-rule="evenodd" stroke-linejoin="miter" fill="rgb(0, 0, 0)" shape-rendering="geometricPrecision" /></g><g id="Solid"><path d="M81.05 110.09 L81.05 110.09 L81.05 109.66 L81.05 109.23 L95.78 117.73 L95.78 118.16 L95.41 118.38 Z" stroke="rgb(0, 0, 0)" stroke-width="0" fill-rule="evenodd" stroke-linejoin="miter" fill="rgb(0, 0, 0)" shape-rendering="geometricPrecision" /></g><g id="Solid"><line x1="79.52" y1="109.66" x2="79.52" y2="99.6" stroke="rgb(0, 0, 0)" stroke-width="0.75" shape-rendering="auto" /><path d="M82.2 109.89 L82.2 109.89 L82.95 110.33 L82.96 99.6 L82.21 99.6 Z" stroke="rgb(0, 0, 0)" stroke-width="0" fill-rule="evenodd" stroke-linejoin="miter" fill="rgb(0, 0, 0)" shape-rendering="geometricPrecision" /><path d="M79.14 110.33 L79.14 110.33 L79.89 109.89 L79.9 99.6 L79.15 99.6 Z" stroke="rgb(0, 0, 0)" stroke-width="0" fill-rule="evenodd" stroke-linejoin="miter" fill="rgb(0, 0, 0)" shape-rendering="geometricPrecision" /></g><g><text xml:space="preserve" text-anchor="start" text-rendering="geometricPrecision"><tspan x="76.38" y="97.36" font-family="Arial" font-size="12" fill="rgb(0, 0, 0)">O</tspan></text></g><g id="Solid"><path d="M95.41 118.38 L95.41 118.38 L95.78 118.16 L96.16 118.38 L96.16 134.94 L95.78 135.16 L95.4 135.38 Z" stroke="rgb(0, 0, 0)" stroke-width="0" fill-rule="evenodd" stroke-linejoin="miter" fill="rgb(0, 0, 0)" shape-rendering="geometricPrecision" /><line x1="98.84" y1="119.93" x2="98.84" y2="133.39" stroke="rgb(0, 0, 0)" stroke-width="0.75" shape-rendering="auto" /></g><g id="Solid"><path d="M95.4 135.38 L95.4 135.38 L95.78 135.16 L96.16 134.94 L110.5 143.23 L110.5 143.66 L110.5 144.09 Z" stroke="rgb(0, 0, 0)" stroke-width="0" fill-rule="evenodd" stroke-linejoin="miter" fill="rgb(0, 0, 0)" shape-rendering="geometricPrecision" /></g><g id="Solid"><path d="M110.5 144.09 L110.5 144.09 L110.5 143.66 L110.5 143.23 L124.85 134.94 L125.22 135.16 L125.59 135.38 Z" stroke="rgb(0, 0, 0)" stroke-width="0" fill-rule="evenodd" stroke-linejoin="miter" fill="rgb(0, 0, 0)" shape-rendering="geometricPrecision" /><line x1="110.5" y1="140.13" x2="122.16" y2="133.39" stroke="rgb(0, 0, 0)" stroke-width="0.75" shape-rendering="auto" /></g><g id="Solid"><path d="M125.59 135.38 L125.59 135.38 L125.22 135.16 L124.85 134.94 L124.85 118.38 L125.22 118.16 L125.59 117.94 Z" stroke="rgb(0, 0, 0)" stroke-width="0" fill-rule="evenodd" stroke-linejoin="miter" fill="rgb(0, 0, 0)" shape-rendering="geometricPrecision" /></g><g id="Solid"><path d="M125.59 117.94 L125.59 117.94 L125.22 118.16 L124.85 118.38 L110.5 110.09 L110.5 109.66 L110.5 109.23 Z" stroke="rgb(0, 0, 0)" stroke-width="0" fill-rule="evenodd" stroke-linejoin="miter" fill="rgb(0, 0, 0)" shape-rendering="geometricPrecision" /><line x1="122.16" y1="119.93" x2="110.5" y2="113.19" stroke="rgb(0, 0, 0)" stroke-width="0.75" shape-rendering="auto" /></g><g id="Solid"><path d="M110.5 109.23 L110.5 109.23 L110.5 109.66 L110.5 110.09 L96.16 118.38 L95.78 118.16 L95.78 117.73 Z" stroke="rgb(0, 0, 0)" stroke-width="0" fill-rule="evenodd" stroke-linejoin="miter" fill="rgb(0, 0, 0)" shape-rendering="geometricPrecision" /></g><g id="Arrow"><line x1="216.49" y1="117.97" x2="143.3" y2="117.97" stroke="rgb(0, 0, 0)" stroke-width="0.75" shape-rendering="auto" /><path d="M222.05 117.97 L214.55 116.1 C215.92 117.15 215.92 118.79 214.55 119.84 Z" stroke="rgb(0, 0, 0)" stroke-width="0" fill-rule="evenodd" stroke-linejoin="miter" stroke-miterlimit="8.66906256893602" fill="rgb(0, 0, 0)" shape-rendering="geometricPrecision" /></g><g><text xml:space="preserve" text-anchor="start" text-rendering="geometricPrecision"><tspan x="170.3" y="110.47" font-family="Arial" font-size="12" fill="rgb(0, 0, 0)">6H</tspan><tspan font-family="Arial" dy="-4.89" font-size="9" fill="rgb(0, 0, 0)">+</tspan></text></g><g><text xml:space="preserve" text-anchor="start" text-rendering="geometricPrecision"><tspan x="169.55" y="135.22" font-family="Arial" font-size="12" fill="rgb(0, 0, 0)">HCl</tspan></text></g><g id="Solid"><path d="M235.45 95 L235.45 95 L235.83 95.22 L236.21 95.44 L236.21 112 L235.83 112.22 L235.45 112.44 Z" stroke="rgb(0, 0, 0)" stroke-width="0" fill-rule="evenodd" stroke-linejoin="miter" fill="rgb(0, 0, 0)" shape-rendering="geometricPrecision" /><line x1="238.89" y1="96.99" x2="238.89" y2="110.45" stroke="rgb(0, 0, 0)" stroke-width="0.75" shape-rendering="auto" /></g><g id="Solid"><path d="M235.45 112.44 L235.45 112.44 L235.83 112.22 L236.21 112 L250.55 120.29 L250.55 120.72 L250.55 121.15 Z" stroke="rgb(0, 0, 0)" stroke-width="0" fill-rule="evenodd" stroke-linejoin="miter" fill="rgb(0, 0, 0)" shape-rendering="geometricPrecision" /></g><g id="Solid"><path d="M250.55 121.15 L250.55 121.15 L250.55 120.72 L250.55 120.29 L264.9 112 L265.27 112.22 L265.27 112.65 Z" stroke="rgb(0, 0, 0)" stroke-width="0" fill-rule="evenodd" stroke-linejoin="miter" fill="rgb(0, 0, 0)" shape-rendering="geometricPrecision" /><line x1="250.55" y1="117.19" x2="262.21" y2="110.45" stroke="rgb(0, 0, 0)" stroke-width="0.75" shape-rendering="auto" /></g><g id="Solid"><path d="M265.65 112 L265.65 112 L265.27 112.22 L264.9 112 L264.9 95.44 L265.27 95.22 L265.64 95 Z" stroke="rgb(0, 0, 0)" stroke-width="0" fill-rule="evenodd" stroke-linejoin="miter" fill="rgb(0, 0, 0)" shape-rendering="geometricPrecision" /></g><g id="Solid"><path d="M265.64 95 L265.64 95 L265.27 95.22 L264.9 95.44 L250.55 87.15 L250.55 86.72 L250.55 86.29 Z" stroke="rgb(0, 0, 0)" stroke-width="0" fill-rule="evenodd" stroke-linejoin="miter" fill="rgb(0, 0, 0)" shape-rendering="geometricPrecision" /><line x1="262.21" y1="96.99" x2="250.55" y2="90.25" stroke="rgb(0, 0, 0)" stroke-width="0.75" shape-rendering="auto" /></g><g id="Solid"><path d="M250.55 86.29 L250.55 86.29 L250.55 86.72 L250.55 87.15 L236.21 95.44 L235.83 95.22 L235.45 95 Z" stroke="rgb(0, 0, 0)" stroke-width="0" fill-rule="evenodd" stroke-linejoin="miter" fill="rgb(0, 0, 0)" shape-rendering="geometricPrecision" /></g><g id="Solid"><path d="M265.27 112.65 L265.27 112.65 L265.27 112.22 L265.65 112 L279.99 120.29 L279.99 120.72 L279.99 121.15 Z" stroke="rgb(0, 0, 0)" stroke-width="0" fill-rule="evenodd" stroke-linejoin="miter" fill="rgb(0, 0, 0)" shape-rendering="geometricPrecision" /></g><g id="Solid"><path d="M279.99 121.15 L279.99 121.15 L279.99 120.72 L279.99 120.29 L294.72 111.79 L294.72 112.22 L294.72 112.65 Z" stroke="rgb(0, 0, 0)" stroke-width="0" fill-rule="evenodd" stroke-linejoin="miter" fill="rgb(0, 0, 0)" shape-rendering="geometricPrecision" /><line x1="279.99" y1="117.19" x2="293.19" y2="109.57" stroke="rgb(0, 0, 0)" stroke-width="0.75" shape-rendering="auto" /></g><g id="Solid"><path d="M294.72 112.65 L294.72 112.65 L294.72 112.22 L294.72 111.79 L309.44 120.29 L309.44 120.72 L309.07 120.94 Z" stroke="rgb(0, 0, 0)" stroke-width="0" fill-rule="evenodd" stroke-linejoin="miter" fill="rgb(0, 0, 0)" shape-rendering="geometricPrecision" /></g><g id="Solid"><path d="M309.07 120.94 L309.07 120.94 L309.44 120.72 L309.82 120.94 L309.82 137.5 L309.44 137.72 L309.06 137.94 Z" stroke="rgb(0, 0, 0)" stroke-width="0" fill-rule="evenodd" stroke-linejoin="miter" fill="rgb(0, 0, 0)" shape-rendering="geometricPrecision" /><line x1="312.5" y1="122.49" x2="312.5" y2="135.95" stroke="rgb(0, 0, 0)" stroke-width="0.75" shape-rendering="auto" /></g><g id="Solid"><path d="M309.06 137.94 L309.06 137.94 L309.44 137.72 L309.82 137.5 L324.16 145.79 L324.16 146.22 L324.16 146.65 Z" stroke="rgb(0, 0, 0)" stroke-width="0" fill-rule="evenodd" stroke-linejoin="miter" fill="rgb(0, 0, 0)" shape-rendering="geometricPrecision" /></g><g id="Solid"><path d="M324.16 146.65 L324.16 146.65 L324.16 146.22 L324.16 145.79 L338.51 137.5 L338.88 137.72 L339.25 137.94 Z" stroke="rgb(0, 0, 0)" stroke-width="0" fill-rule="evenodd" stroke-linejoin="miter" fill="rgb(0, 0, 0)" shape-rendering="geometricPrecision" /><line x1="324.16" y1="142.69" x2="335.82" y2="135.95" stroke="rgb(0, 0, 0)" stroke-width="0.75" shape-rendering="auto" /></g><g id="Solid"><path d="M339.25 137.94 L339.25 137.94 L338.88 137.72 L338.51 137.5 L338.51 120.94 L338.88 120.72 L339.25 120.5 Z" stroke="rgb(0, 0, 0)" stroke-width="0" fill-rule="evenodd" stroke-linejoin="miter" fill="rgb(0, 0, 0)" shape-rendering="geometricPrecision" /></g><g id="Solid"><path d="M339.25 120.5 L339.25 120.5 L338.88 120.72 L338.51 120.94 L324.16 112.65 L324.16 112.22 L324.16 111.79 Z" stroke="rgb(0, 0, 0)" stroke-width="0" fill-rule="evenodd" stroke-linejoin="miter" fill="rgb(0, 0, 0)" shape-rendering="geometricPrecision" /><line x1="335.82" y1="122.49" x2="324.16" y2="115.75" stroke="rgb(0, 0, 0)" stroke-width="0.75" shape-rendering="auto" /></g><g id="Solid"><path d="M324.16 111.79 L324.16 111.79 L324.16 112.22 L324.16 112.65 L309.82 120.94 L309.44 120.72 L309.44 120.29 Z" stroke="rgb(0, 0, 0)" stroke-width="0" fill-rule="evenodd" stroke-linejoin="miter" fill="rgb(0, 0, 0)" shape-rendering="geometricPrecision" /></g><g><text xml:space="preserve" text-anchor="start" text-rendering="geometricPrecision"><tspan x="360.05" y="121.72" font-family="Arial" font-size="12" fill="rgb(0, 0, 0)">+ 2H</tspan><tspan font-family="Arial" dy="2.72" font-size="9" fill="rgb(0, 0, 0)">2</tspan><tspan font-family="Arial" dy="-2.72" font-size="12" fill="rgb(0, 0, 0)">O</tspan></text></g></g></g></svg>